<svg width="158" height="158" viewBox="0 0 158 158" fill="none" xmlns="http://www.w3.org/2000/svg">
<g filter="url(#filter0_d_134_903)">
<rect x="4" y="4" width="150" height="150" rx="20" fill="white" fill-opacity="0.25" shape-rendering="crispEdges"/>
</g>
<g clip-path="url(#clip0_134_903)">
<path d="M78.7801 53.52C75.9614 51.2871 72.7304 49.6312 69.2717 48.647C64.9944 47.4034 60.4794 47.2147 56.1133 48.0973C51.7472 48.9798 47.66 50.9073 44.2015 53.7147C40.7431 56.522 38.0165 60.1257 36.2552 64.2171C34.4938 68.3085 33.7502 72.7658 34.088 77.2074L38.0285 128.048C38.2093 130.274 39.0636 132.392 40.4778 134.12C41.8919 135.849 43.7989 137.106 45.9449 137.723C48.2591 138.396 50.7303 138.291 52.9788 137.423C55.2273 136.556 57.1288 134.974 58.3911 132.921L79.2111 99.039L73.1595 89.5305C69.5591 83.8707 68.1437 77.093 69.1782 70.4652C70.2127 63.8374 73.6261 57.8135 78.7801 53.52Z" fill="#2E8A99"/>
<path d="M90.7777 47.7674C86.3641 48.6778 82.2432 50.6627 78.7801 53.5464C84.0362 57.7456 87.5765 63.721 88.7348 70.3482C89.893 76.9754 88.5894 83.7974 85.0692 89.5305L79.2111 99.0389L100.532 132.56C101.791 134.503 103.631 135.999 105.789 136.837C107.946 137.674 110.314 137.811 112.553 137.226C114.793 136.642 116.792 135.367 118.266 133.582C119.74 131.797 120.613 129.593 120.763 127.283L123.903 76.3806C124.151 72.1556 123.422 67.9303 121.774 64.032C120.127 60.1337 117.603 56.6671 114.401 53.9005C111.198 51.134 107.401 49.1418 103.305 48.0782C99.2082 47.0147 94.9219 46.9083 90.7777 47.7674Z" fill="#008BBE"/>
<path d="M61.5841 42.7537C67.7293 42.7537 72.7109 37.7721 72.7109 31.6269C72.7109 25.4817 67.7293 20.5 61.5841 20.5C55.4389 20.5 50.4572 25.4817 50.4572 31.6269C50.4572 37.7721 55.4389 42.7537 61.5841 42.7537Z" fill="#008BBE"/>
<path d="M96.416 42.7537C102.561 42.7537 107.543 37.7721 107.543 31.6269C107.543 25.4817 102.561 20.5 96.416 20.5C90.2708 20.5 85.2891 25.4817 85.2891 31.6269C85.2891 37.7721 90.2708 42.7537 96.416 42.7537Z" fill="#2E8A99"/>
</g>
<defs>
<filter id="filter0_d_134_903" x="0" y="0" width="158" height="158" filterUnits="userSpaceOnUse" color-interpolation-filters="sRGB">
<feFlood flood-opacity="0" result="BackgroundImageFix"/>
<feColorMatrix in="SourceAlpha" type="matrix" values="0 0 0 0 0 0 0 0 0 0 0 0 0 0 0 0 0 0 127 0" result="hardAlpha"/>
<feOffset/>
<feGaussianBlur stdDeviation="2"/>
<feComposite in2="hardAlpha" operator="out"/>
<feColorMatrix type="matrix" values="0 0 0 0 0 0 0 0 0 0 0 0 0 0 0 0 0 0 0.25 0"/>
<feBlend mode="normal" in2="BackgroundImageFix" result="effect1_dropShadow_134_903"/>
<feBlend mode="normal" in="SourceGraphic" in2="effect1_dropShadow_134_903" result="shape"/>
</filter>
<clipPath id="clip0_134_903">
<rect width="90" height="117.707" fill="white" transform="translate(34 20.5)"/>
</clipPath>
</defs>
</svg>
